# xmcd
#
# Track frame offsets: 
#        150
#        10257
#        22827
#        33412
#        50362
#        61312
#        71352
#        81280
#        101767
#        113567
#        131627
#
# Disc length: 1890 seconds
#
# Revision: 0
# Processed by: cddbd v1.5.2PL0 Copyright (c) Steve Scherf et al.
# Submitted via: ExactAudioCopy v0.95b4
#
DISCID=8507600b
DTITLE=Black Squirrels - Last Of The Ghost Town Gang
DYEAR=2007
DGENRE=Country
TTITLE0=Somebody Else's Trouble
TTITLE1=Hey!
TTITLE2=Swollen Eyes
TTITLE3=Sway
TTITLE4=Filled With Love
TTITLE5=Heavenly Design
TTITLE6=When The Money Ran Out (So Did He)
TTITLE7=The Ballad Of Blondie and Rosie
TTITLE8=The Cuckoo
TTITLE9=Hollow On My Pillow
TTITLE10=Ever Been To Omaha?
EXTD=
EXTT0=
EXTT1=
EXTT2=
EXTT3=
EXTT4=
EXTT5=
EXTT6=
EXTT7=
EXTT8=
EXTT9=
EXTT10=
PLAYORDER=
